<?xml version="1.0" standalone="no"?><!DOCTYPE svg PUBLIC "-//W3C//DTD SVG 1.1//EN" "http://www.w3.org/Graphics/SVG/1.1/DTD/svg11.dtd"><svg t="1576466385734" class="icon" viewBox="0 0 1024 1024" version="1.1" xmlns="http://www.w3.org/2000/svg" p-id="7164" xmlns:xlink="http://www.w3.org/1999/xlink" width="200" height="200"><defs><style type="text/css"></style></defs><path d="M471.115382 386.924019l381.73457 104.908001v367.033462l-381.73457-164.472432z" fill="#8E99A3" p-id="7165"></path><path d="M471.553665 387.2877l-311.777253 87.124929v385.660461l311.781915-166.920286z" fill="#A0AAB5" p-id="7166"></path><path d="M679.411383 101.616221s-2.158774-54.701363-16.645403-69.187992A37.15142 37.15142 0 0 0 610.223391 84.966155c14.486629 14.486629 69.192655 16.645403 69.192655 16.645403z" fill="#CED8E5" opacity=".4" p-id="7167"></path><path d="M704.831757 123.511686s2.158774 54.701363 16.645403 69.187992A37.15142 37.15142 0 0 0 774.019749 140.157089c-14.486629-14.486629-69.192655-16.645403-69.192654-16.645403z" fill="#CED8E5" opacity=".4" p-id="7168"></path><path d="M699.385867 77.053761h26.404178v26.301601a37.76688 37.76688 0 0 1-37.766881 37.76688h-26.404178v-26.301601a37.76688 37.76688 0 0 1 37.766881-37.76688z" fill="#A8B7C5" p-id="7169"></path><path d="M650.382174 94.869471l7.166382-7.166382 52.454 52.454-7.166382 7.166382z" fill="#DDE5F2" p-id="7170"></path><path d="M670.6504 78.014252l7.166382-7.166382 52.454 52.454-7.166382 7.166382z" fill="#DDE5F2" p-id="7171"></path><path d="M708.902188 70.311673a27.019638 26.977675 0 1 0 54.039277 0 27.019638 26.977675 0 1 0-54.039277 0Z" fill="#8B9AA8" p-id="7172"></path><path d="M159.771749 475.102691l381.73457 121.138433v427.758876l-381.73457-164.458444z" fill="#DAE2EC" p-id="7173"></path><path d="M854.775597 491.347112l-318.68253 104.908v427.744888l318.68253-164.453782z" fill="#C5D0D9" p-id="7174"></path><path d="M853.871057 491.095332l123.194631 164.868752-326.949281 128.841012-112.913647-189.37526z" fill="#DAE2EC" p-id="7175"></path><path d="M159.314817 474.212138L52.607061 640.666166l376.078863 144.13893 109.878309-189.603726z" fill="#C5D0D9" p-id="7176"></path></svg>