<?xml version="1.0" standalone="no"?><!DOCTYPE svg PUBLIC "-//W3C//DTD SVG 1.1//EN" "http://www.w3.org/Graphics/SVG/1.1/DTD/svg11.dtd"><svg t="1572064965702" class="icon" viewBox="0 0 1024 1024" version="1.1" xmlns="http://www.w3.org/2000/svg" p-id="18730" xmlns:xlink="http://www.w3.org/1999/xlink" width="200" height="200"><defs><style type="text/css"></style></defs><path d="M488.928555 245.655669L132.931893 455.366647l355.996662 179.241759z" fill="#F4F4F4" p-id="18731"></path><path d="M488.928555 245.655669l369.705721 207.056937-369.684823 181.8958z" fill="#4A90E2" fill-opacity=".2" p-id="18732"></path><path d="M870.253539 655.21379v165.616292L501.7599 1003.102045V634.608406l132.179565 149.065112z" fill="#3E4260" fill-opacity=".171" p-id="18733"></path><path d="M1013.550816 338.170915l-220.118159-115.273119c2.75853-3.552652 5.391672-7.147101 7.794937-10.804243l-9.362284-5.997713a150.465275 150.465275 0 0 1-8.463672 11.556569l-136.568135-71.512801-154.435887 100.707244-123.277036-103.549366L13.479183 340.532384l119.45271 114.834263L10.44898 579.249723l119.327322 64.637375v195.040613l370.9387 184.65433v-7.167999l375.097393-189.335471v-168.521109l129.755402-70.467904-135.418748-126.432627L1013.550816 338.12912z m-365.923191-175.542821l340.720257 178.405841-129.713606 111.678671-238.863625-138.804216-1.922612-7.878529c-2.716734 0.668735-5.496162 1.295673-8.296488 1.94351l-97.739735-56.800642 135.815809-88.544635z m-610.345671 180.97629l330.166789-183.066085 110.006835 92.389858L144.655646 446.798485l-107.373692-103.194101z m-3.343673 232.176279l104.53157-105.722754 339.800747 163.777273-108.167814 124.008464-336.143605-182.062983z m452.440724 424.730036l-342.245808-170.318333v-178.552127l229.250566 124.175648 112.974344-129.546422v354.241234z m7.314284-375.034699l-343.353399-165.511803 345.79846-201.435388 103.026918 59.872641 0.647836 2.988408 0.668735-0.146286c0.877714-0.167184 1.73453-0.376163 2.612244-0.564245l241.05791 140.078992-350.458704 164.717681z m367.741313 192.888124l-360.698702 182.083881v-352.757479l125.680301 146.285684 235.039299-127.62381v152.011724z m119.933363-233.325667L629.780772 775.941275l-121.626098-141.541849 349.957153-164.466905 123.256138 115.105936z" fill="#CCCCCC" p-id="18734"></path><path d="M444.708483 544.809894c4.137795 4.994611 6.833631 7.794937 6.959019 7.920325l8.045712-7.376978a138.030992 138.030992 0 0 1-6.394774-7.272489l-8.609957 6.729142zM640.7313 12.330002h1.922612l0.083592-10.741548c-7.188896-0.041796-14.356895 0.20898-21.274118 0.71053l0.856816 10.720651c5.976815-0.438857 12.183508-0.689633 18.3902-0.689633z m-38.514931 3.17649l-1.964408-10.595264a162.06364 162.06364 0 0 0-20.918853 5.057305l3.427265 10.239998c5.914121-1.880816 12.476079-3.469061 19.455996-4.702039zM685.097658 5.224698a267.075864 267.075864 0 0 0-21.106934-2.633143l-0.961306 10.699753c6.791835 0.585143 13.583671 1.441959 20.187424 2.549551l1.880816-10.616161z m110.215814 105.576468l10.846039-2.089796a137.801115 137.801115 0 0 0-5.746938-20.271016l-10.428079 3.615346c2.256979 6.102203 4.033305 12.392487 5.328978 18.745466z m2.465959 24.513301c0 4.722938-0.292571 9.487672-0.835918 14.147916l10.992324 1.232979a131.949687 131.949687 0 0 0 0.773225-21.065139l-11.055019 0.438857c0.083592 1.755428 0.125388 3.510856 0.125388 5.245387z m-11.577467 51.346275l10.051916 4.493061c3.030203-6.415672 5.537958-13.061222 7.481468-19.790364l-10.657957-2.904815a122.52471 122.52471 0 0 1-6.875427 18.202118z m5.391673-117.446506a119.745282 119.745282 0 0 0-11.974529-17.700568l-8.651753 6.708243c3.970611 4.848326 7.648652 10.239998 10.908732 16.112324l9.71755-5.119999zM726.287527 15.987144a208.854161 208.854161 0 0 0-20.375506-6.352978l-2.821224 10.386284c6.708244 1.73453 13.18661 3.761632 19.247017 6.018611l3.970611-10.031019z m37.783503 20.375507a123.423322 123.423322 0 0 0-18.181221-11.661059l-5.287183 9.466773c6.102203 3.239183 11.681957 6.791835 16.551181 10.595263l6.917223-8.400977zM465.355662 347.031648l5.767836 9.195101c5.51706-3.280979 11.514773-6.478366 17.805057-9.487672l-4.890121-9.654855a247.013827 247.013827 0 0 0-18.682772 9.947426z m-49.193786 121.81418l-10.741548 2.570448c1.671836 6.54106 3.88702 13.249303 6.645549 19.957547l10.281794-3.991509a140.643237 140.643237 0 0 1-6.185795-18.536486z m11.159508-73.519006l-9.257794-5.893223c-4.075101 6.060407-7.418774 12.476079-9.989222 19.017139l10.344488 3.824326c2.298775-5.830529 5.266285-11.514773 8.902528-16.948242z m-14.544976 47.647337c0-4.179591 0.292571-8.296488 0.856816-12.287997l-10.950529-1.462857a98.053204 98.053204 0 0 0-0.668734 21.315914l11.03412-0.752326a88.356553 88.356553 0 0 1-0.271673-6.833632z m8.38008 67.291415c3.280979 5.955917 6.979917 11.95363 10.971426 17.825956l9.215998-5.955917c-3.803428-5.579754-7.314284-11.284896-10.448977-16.927344l-9.738447 5.057305z m26.540402-151.426581c-5.893223 4.451264-11.284896 9.1951-16.049629 14.043426l7.983019 7.418774c4.388571-4.472162 9.40408-8.839835 14.837548-12.956732l-6.770938-8.505468z m55.69305-30.176647l4.179591 9.968324c6.060407-2.403265 12.538773-4.764734 19.184323-6.979916l-3.552653-10.177305c-6.854529 2.298775-13.520977 4.70204-19.811261 7.188897z m39.915094-13.332895l3.051102 10.323589c6.394774-1.797224 13.08212-3.552652 19.915751-5.161794l-2.674939-10.448978c-6.959019 1.671836-13.79265 3.448163-20.312812 5.287183z m214.726487-74.041455l-7.523264-7.899426c-4.80653 4.325877-10.031018 8.568162-15.548078 12.601466l6.624651 8.609958c5.851427-4.263183 11.34759-8.756243 16.446691-13.311998z m-110.759161 58.994927l-3.448163-10.2191c-6.352978 2.048-12.956732 4.012407-19.685873 5.851428l3.030203 10.344487c6.833631-1.880816 13.625467-3.88702 20.103833-5.976815z m76.779086-34.000972l-5.851427-9.111509c-5.579754 3.385469-11.556569 6.708244-17.67967 9.863835l5.161795 9.529467c6.352978-3.280979 12.559671-6.750039 18.3902-10.281793z m-37.407339 19.267914l-4.534856-9.822039c-6.060407 2.65404-12.434283 5.224489-18.954445 7.648652l3.970611 10.051916c6.687346-2.507755 13.270201-5.161795 19.497792-7.878529zM564.49556 28.107958l-5.767835-9.1951a60.2906 60.2906 0 0 0-9.069713 6.520162l7.418774 7.983019c2.089795-1.83902 4.59755-3.636244 7.418774-5.308081z m-135.982992 68.378109a50.155092 50.155092 0 0 0 35.108564-14.21061 20.479996 20.479996 0 0 0 19.790363 14.607671 20.271016 20.271016 0 0 0 20.563588-19.999343 19.351506 19.351506 0 0 0-2.277877-9.069712h0.208979c19.226119 0 34.836891-15.213711 34.836891-33.917381S521.132304 0.000209 501.927083 0.000209c-14.628568 0-27.167341 8.798039-32.329136 21.232322A49.946112 49.946112 0 0 0 428.533466 0.000209c-27.355423 0-49.590847 21.650281-49.590847 48.23248 0 26.603097 22.235424 48.274276 49.590847 48.274276zM501.927083 10.762656c13.123916 0 23.781873 10.386284 23.781873 23.154934 0 12.747753-10.657957 23.154934-23.781873 23.154934-13.123916 0-23.823669-10.386284-23.823668-23.154934 0-12.76865 10.699753-23.154934 23.823668-23.154934z m-73.393617 0c21.232322 0 38.535829 16.822854 38.535829 37.490931s-17.303507 37.490931-38.535829 37.490931c-21.25322 0-38.535829-16.822854-38.535829-37.490931S407.280246 10.762656 428.533466 10.762656z" fill="#CCCCCC" p-id="18735"></path></svg>