<?xml version="1.0" standalone="no"?><!DOCTYPE svg PUBLIC "-//W3C//DTD SVG 1.1//EN" "http://www.w3.org/Graphics/SVG/1.1/DTD/svg11.dtd"><svg t="1572070282099" class="icon" viewBox="0 0 1027 1024" version="1.1" xmlns="http://www.w3.org/2000/svg" p-id="21482" xmlns:xlink="http://www.w3.org/1999/xlink" width="200.5859375" height="200"><defs><style type="text/css"></style></defs><path d="M454.178233 451.479551c7.996096 0 15.592387 3.398341 20.8898 9.395412l67.267155 72.864422c1.799122 1.799122 3.598243 3.498292 5.397364 5.097511 3.798145 3.298389 8.695754 5.197462 13.793265 5.097511 5.597267 0 9.495364-2.398829 14.392973-5.897121l23.388579-19.790336c5.197462-4.097999 9.695266-7.096535 15.992192-7.096535 6.196974 0.199902 12.094095 2.998536 15.992191 7.796193L755.331186 652.681308l-0.399805-326.240703c-0.499756-8.595803-7.49634-14.992679-16.192094-14.992679H291.257784c-8.495852 0-15.092631 6.097023-16.391996 14.692826v326.340654l158.322694-191.106687c4.897609-5.797169 12.593851-9.895168 20.989751-9.895168z m201.201757-100.151098c21.689409-0.399805 41.979502 10.994632 52.974134 29.685505 10.994632 18.790825 10.994632 41.979502 0 60.770327-10.994632 18.790825-31.284724 30.08531-52.974134 29.685505-32.783992-0.599707-58.971205-27.286676-58.971205-60.070668-0.099951-32.783992 26.187213-59.470961 58.971205-60.070669z" fill="#FF7800" p-id="21483"></path><path d="M3.898097 0.499756v1023.500244h1023.500244V0.499756H3.898097z m231.087164 306.050561c0-19.390532 15.692338-35.08287 35.08287-35.082869H760.628599c19.490483 0 35.08287 15.89224 35.08287 35.482674v410.299658c0 19.390532-15.692338 35.08287-35.08287 35.08287H270.367984c-19.590434 0-35.482674-15.89224-35.482674-35.482674V306.550317z" fill="#FF7800" p-id="21484"></path></svg>