<?xml version="1.0" standalone="no"?><!DOCTYPE svg PUBLIC "-//W3C//DTD SVG 1.1//EN" "http://www.w3.org/Graphics/SVG/1.1/DTD/svg11.dtd"><svg t="1572159215105" class="icon" viewBox="0 0 1024 1024" version="1.1" xmlns="http://www.w3.org/2000/svg" p-id="2107" xmlns:xlink="http://www.w3.org/1999/xlink" width="200" height="200"><defs><style type="text/css"></style></defs><path d="M1024 162.816c0-36.352-24.064-60.416-60.416-60.416h-903.168c-35.84 0-60.416 24.064-60.416 59.904v706.56c0 35.328 24.576 59.904 60.416 59.904h903.68c35.84 0 59.904-24.576 59.904-59.904V162.816z m-194.048 709.632c0 8.192-2.048 10.24-10.24 10.24h-755.2c-15.36 0-18.432-3.072-18.432-18.432V327.168c0-7.168 1.536-9.216 9.216-9.216 128 0.512 256 0 383.488 0h380.928c7.68 0 10.24 1.536 10.24 9.728-0.512 181.76-0.512 363.52 0 544.768z m147.968-4.608c0 10.24-4.096 14.336-14.336 14.336h-81.92c-7.68 0-6.656-4.096-6.656-8.704v-273.408-273.408c0-7.168 1.536-9.216 8.704-8.704 29.184 0.512 58.368 0.512 87.04 0 5.632 0 7.168 1.024 7.168 6.656v543.232z m-8.192-594.944h-914.944c-7.68 0-9.728-2.048-9.728-9.728 0.512-32.768 0-65.536 0-98.304 0-12.8 3.584-16.896 16.384-16.896h899.584c12.8 0 16.384 3.584 16.384 16.384v99.84c1.024 7.68-1.536 8.704-7.68 8.704z" fill="#1AAA5E" p-id="2108"></path><path d="M384 423.424h-217.6c-15.872 0-25.6-8.704-26.112-22.528 0-12.288 8.192-21.504 20.48-23.04 2.56-0.512 5.632 0 8.704 0h429.056c5.12 0 10.24 0 14.848 2.048 9.216 4.096 14.848 13.824 13.312 24.064-1.536 10.24-9.216 17.92-19.456 19.456-3.072 0.512-6.144 0.512-9.216 0.512-71.168-0.512-142.336-0.512-214.016-0.512zM384 735.744h217.6c9.728 0 17.408 2.56 22.016 10.752 8.704 14.336-0.512 32.768-17.408 34.816h-439.808c-15.36 0-25.088-7.68-26.112-20.48-1.024-14.848 8.704-25.088 24.064-25.088h219.648zM310.272 602.112h-144.896c-15.36 0-25.088-8.704-25.088-22.528s9.728-23.04 24.576-23.04h289.28c13.312 0 22.016 7.68 24.064 19.456 1.536 11.264-4.608 21.504-15.36 25.088-3.584 1.024-6.656 1.024-10.24 1.024h-142.336zM220.672 212.48c0-16.384 12.8-28.672 29.184-28.672s28.672 12.8 28.672 28.672c0 16.384-12.8 29.184-29.696 29.184-16.384-0.512-28.16-12.8-28.16-29.184zM138.752 241.664c-15.872 0-29.184-12.8-29.184-28.672 0-16.384 12.8-29.184 28.672-29.184 16.384 0 29.184 12.288 29.184 28.672 0.512 15.872-12.288 29.184-28.672 29.184zM360.448 241.664c-15.872 0-29.184-12.288-29.696-28.672-0.512-15.872 12.8-29.184 28.672-29.184 16.384 0 29.184 12.288 29.184 28.672 0.512 15.872-12.288 28.672-28.16 29.184zM903.168 528.896c0-44.032 0.512-88.064 0-132.096 0-15.36 10.24-26.112 22.528-26.112 13.824 0 23.04 10.24 23.04 26.112v264.704c0 11.776-5.632 20.48-15.36 24.064-8.704 3.072-19.456 0.512-25.6-6.656-4.096-5.12-5.12-10.752-5.12-17.408 0.512-44.032 0.512-88.064 0.512-132.608z" fill="#1AAA5E" p-id="2109"></path></svg>