<?xml version="1.0" standalone="no"?><!DOCTYPE svg PUBLIC "-//W3C//DTD SVG 1.1//EN" "http://www.w3.org/Graphics/SVG/1.1/DTD/svg11.dtd"><svg t="1569739364628" class="icon" viewBox="0 0 1024 1024" version="1.1" xmlns="http://www.w3.org/2000/svg" p-id="8881" xmlns:xlink="http://www.w3.org/1999/xlink" width="200" height="200"><defs><style type="text/css"></style></defs><path d="M840.714243 753.995348c30.322419 0 55.594919 10.305958 76.161031 30.734657s30.700304 45.895867 30.700304 76.103776v5.427804a256.767221 256.767221 0 0 1-5.370549 50.167114 151.383074 151.383074 0 0 1-20.463053 51.323672c-10.065486 15.802469-24.047236 29.165862-41.590266 40.010019s-40.536769 16.23761-68.580426 16.23761c-27.356593 0-49.835033-5.542315-67.561281-16.77581a125.961711 125.961711 0 0 1-42.689569-45.369118q-16.191805-28.627661-23.738057-67.492574a704.526749 704.526749 0 0 1-10.86706-83.203436q-3.206298-46.090535-3.790303-92.29558c-0.309179-32.062981-1.271068-63.599213-2.679549-94.562892q-2.129898-70.114868-9.160851-121.472893c-4.72929-34.261585-12.401503-62.671677-23.23421-85.333333s-25.123636-39.597781-43.193416-50.728216-41.006262-16.77581-69.095724-16.77581q-48.609769 0-84.806584 11.909107a122.274468 122.274468 0 0 0-59.396672 41.533012q-23.13115 29.646806-35.074611 79.997137-11.794597 50.212918-11.840401 125.904455t-3.7674 149.562355q-3.847558 73.996779-17.863661 132.294149c-9.389873 38.842011-23.028091 70.275183-41.029164 94.001789s-42.506352 35.670066-73.470031 35.670066c-20.86384 0-38.83056-2.496332-54.00322-7.569153s-27.894793-11.531222-38.326713-19.46681a101.101449 101.101449 0 0 1-25.364109-27.562713 155.814636 155.814636 0 0 1-15.138307-31.799606c-8.668456-25.192342-11.932009-54.10628-9.733405-86.466989a98.055466 98.055466 0 0 1 9.733405-38.338164 103.059581 103.059581 0 0 1 23.199857-31.364466 108.327071 108.327071 0 0 1 32.967615-21.058508 104.135981 104.135981 0 0 1 39.998569-7.5348 119.457506 119.457506 0 0 1 16.764358 1.145106 62.980855 62.980855 0 0 1 15.676507 4.225443c-0.709966-23.657899-1.981034-48.563965-3.836106-74.500626s-3.572732-50.934335-5.439256-75.130435-3.435319-46.205046-4.866702-66.416175-2.106996-36.735015-2.106996-49.663267a649.492933 649.492933 0 0 1 13.44355-133.370549q13.44355-64.194668 49.15942-113.365539t98.318841-78.359635q62.660225-29.200215 160.864555-29.165862a669.990338 669.990338 0 0 1 68.030775 3.263553c3.664341 12.195384 9.733405 27.368044 18.321703 45.369118s20.165325 39.597781 34.570764 64.767222q26.944355 46.445518 52.331365 74.031132c16.970478 18.321703 33.66613 35.830381 50.258723 52.365719 5.038468 4.271247 11.577026 9.89372 19.466809 16.764358s16.764359 13.638218 26.497764 20.463053 20.096618 13.741278 31.295759 20.531758a339.237789 339.237789 0 0 0 32.967615 17.806406c0 7.168366 0.160315 14.405439 0.503847 21.562355s0.561102 14.806227 0.561102 22.741814c0 19.46681-0.698515 40.22759-2.095544 62.625872s-3.275004 45.197352-5.427805 68.637681-4.3056 46.628735-6.538558 69.599571-4.3056 44.991233-6.469851 65.866523c10.86706-5.004115 23.165504-7.500447 36.803721-7.500447z" fill="#FF62A5" p-id="8882"></path><path d="M972.538899 387.790302a83.24924 83.24924 0 0 1 5.966005 23.841117 42.758275 42.758275 0 0 1-4.29415 25.329755c-4.042226 7.603507-10.798354 12.596171-20.463052 15.103954s-23.23421 0.561102-40.605475-5.931652c-8.634103-3.595634-20.268384-10.076937-35.06316-19.466809s-31.364466-21.069959-49.674718-35.06316-37.628198-30.276615-57.75917-48.644122a799.08964 799.08964 0 0 1-58.274468-58.83557q-31.318662-34.559313-57.804974-70.206477t-47.098228-65.832171q-23.703704-35.635713-43.204867-68.030774-15.046699-28.055108-15.69941-42.197173c-0.297728-9.332618 2.565038-15.103954 8.737163-17.268206s14.19932-1.603149 24.230452 1.603149a145.588835 145.588835 0 0 1 31.353015 14.588656c4.992664 3.561281 13.12292 9.89372 24.264806 18.859904s24.367865 20.611916 39.391662 35.074611q15.195563-12.974056 36.735015-30.700304c14.405439-11.909107 28.799427-22.673108 43.273574-32.47522a269.22598 269.22598 0 0 1 39.414564-22.673108q17.829308-8.107354 26.497763-2.702451c7.156915 5.061371 18.859903 14.19932 35.06316 27.482555q24.986223 20.54321 49.136518 42.105565c16.661299 14.760422 31.1927 28.627661 43.869029 41.601717s19.260691 21.562355 19.959205 25.890857c0.767221 3.607085-1.603149 13.34049-6.9966 29.211666s-11.702988 33.322598-18.871355 52.388621-14.462695 37.570943-21.699767 55.640723-12.172482 30.917874-15.035248 38.83056c17.96672 18.699588 32.967615 34.570764 44.808016 47.567722s18.424763 21.230274 19.890499 24.860261z" fill="#6B76FF" p-id="8883"></path></svg>